<svg width="1607" height="450" viewBox="0 0 1607 450" fill="none" xmlns="http://www.w3.org/2000/svg">
<path d="M25.6749 368.181L46.7357 323.011L88.8573 338.352L65.9651 382.67C65.9651 382.67 74.2752 397.162 68.7601 405.275C64.2964 411.841 57.4581 414.673 49.2293 413.363C41.8692 412.192 41.3916 404.651 34.4647 402.056C27.8548 399.58 22.4094 403.916 16.2955 400.51C8.47248 396.153 4.22936 389.157 6.27038 380.887C8.7209 370.958 25.6749 368.181 25.6749 368.181Z" fill="#2A85FF"/>
<g filter="url(#filter0_d_366_313)">
<path d="M34.8301 348.579C34.8301 348.579 72.3732 356.249 81.5301 348.579C90.687 340.909 99.8439 315.34 119.073 286.363C138.303 257.386 246.354 257.386 286.644 286.363C326.934 315.34 347.065 385.944 407.515 378.409C459.924 371.875 499.999 286.363 499.999 286.363C499.999 286.363 452.076 348.969 407.515 348.579C354.158 348.112 312.283 257.386 312.283 257.386L198.713 9.92183C196.928 6.0326 191.4 6.03682 189.621 9.92877L34.8301 348.579Z" fill="white"/>
</g>
<g filter="url(#filter1_dd_366_313)">
<path d="M148.393 206.617L192.273 99.2206C192.955 97.5509 195.325 97.5663 195.985 99.2448L238.238 206.636C239.032 208.656 236.277 210.559 234.614 209.163C225.385 201.414 208.785 189.43 194.159 189.206C179.01 188.974 161.583 201.29 151.992 209.185C150.313 210.567 147.571 208.63 148.393 206.617Z" fill="#2A85FF"/>
</g>
<ellipse cx="243.573" cy="441.478" rx="243.573" ry="8.52272" fill="white"/>
<g clip-path="url(#clip0_366_313)">
<path d="M424.072 260.304C424.072 257.575 421.694 255.361 418.761 255.361H408.073C407.348 252.614 404.703 250.568 401.528 250.568C398.352 250.568 395.708 252.614 394.983 255.361H384.296C381.362 255.361 378.985 257.575 378.985 260.304C378.985 263.033 381.362 265.247 384.296 265.247H418.761C421.694 265.247 424.072 263.033 424.072 260.304Z" fill="white"/>
<path d="M435.001 309.283C435.001 305.23 431.471 301.944 427.116 301.944H409.413V299.697V289.062V285.618L409.444 284.419H427.116C431.471 284.419 435.001 281.133 435.001 277.08C435.001 273.026 431.471 269.74 427.116 269.74H375.94C371.585 269.74 368.054 273.026 368.054 277.08C368.054 281.133 371.585 284.419 375.94 284.419H393.602C393.602 284.419 393.642 285.209 393.642 285.618V289.062V299.697V301.944H375.94C371.585 301.944 368.054 305.23 368.054 309.283C368.054 313.337 371.585 316.623 375.94 316.623H427.116C431.471 316.623 435.001 313.337 435.001 309.283Z" fill="white"/>
<path d="M408.073 331.003H418.761C421.694 331.003 424.072 328.789 424.072 326.06C424.072 323.331 421.694 321.117 418.761 321.117H384.296C381.362 321.117 378.985 323.331 378.985 326.06C378.985 328.789 381.362 331.003 384.296 331.003H394.983C395.708 333.751 398.352 335.796 401.528 335.796C404.704 335.796 407.348 333.751 408.073 331.003Z" fill="white"/>
</g>
<path d="M758.199 378.3C749.719 378.3 743.292 375.98 738.919 371.34C734.599 366.7 732.439 360.433 732.439 352.54C732.439 346.887 733.346 342.033 735.159 337.98C737.026 333.873 739.852 330.727 743.639 328.54C747.426 326.3 752.252 325.18 758.119 325.18C761.106 325.18 763.826 325.42 766.279 325.9C768.786 326.327 771.106 326.913 773.239 327.66V335.26C771.106 334.407 768.812 333.767 766.359 333.34C763.959 332.86 761.426 332.62 758.759 332.62C752.359 332.62 747.826 334.327 745.159 337.74C742.546 341.153 741.239 346.087 741.239 352.54C741.239 358.567 742.679 363.153 745.559 366.3C748.439 369.393 752.892 370.94 758.919 370.94C761.372 370.94 763.826 370.753 766.279 370.38C768.786 369.953 771.132 369.313 773.319 368.46V376.14C771.186 376.833 768.866 377.367 766.359 377.74C763.906 378.113 761.186 378.3 758.199 378.3ZM803.699 378.3C796.872 378.3 791.859 376.593 788.659 373.18C785.512 369.767 783.939 364.887 783.939 358.54C783.939 352.193 785.539 347.313 788.739 343.9C791.939 340.487 796.926 338.78 803.699 338.78C810.526 338.78 815.539 340.487 818.739 343.9C821.939 347.313 823.539 352.193 823.539 358.54C823.539 364.887 821.939 369.767 818.739 373.18C815.592 376.593 810.579 378.3 803.699 378.3ZM803.699 370.94C807.699 370.94 810.526 369.98 812.179 368.06C813.886 366.087 814.739 362.913 814.739 358.54C814.739 354.167 813.886 351.02 812.179 349.1C810.526 347.18 807.699 346.22 803.699 346.22C799.752 346.22 796.926 347.18 795.219 349.1C793.566 351.02 792.739 354.167 792.739 358.54C792.739 362.913 793.566 366.087 795.219 368.06C796.926 369.98 799.752 370.94 803.699 370.94ZM836.023 377.5V339.58H844.023L844.503 343.98C846.317 342.807 848.477 341.74 850.983 340.78C853.49 339.82 855.97 339.153 858.423 338.78V345.42C856.93 345.687 855.303 346.087 853.543 346.62C851.837 347.1 850.21 347.66 848.663 348.3C847.117 348.887 845.81 349.5 844.743 350.14V377.5H836.023ZM886.411 378.3C879.798 378.3 874.678 376.673 871.051 373.42C867.424 370.167 865.611 365.18 865.611 358.46C865.611 352.38 867.158 347.58 870.251 344.06C873.344 340.54 878.038 338.78 884.331 338.78C890.091 338.78 894.411 340.3 897.291 343.34C900.224 346.327 901.691 350.193 901.691 354.94V361.98H873.931C874.358 365.66 875.691 368.193 877.931 369.58C880.171 370.967 883.584 371.66 888.171 371.66C890.091 371.66 892.064 371.473 894.091 371.1C896.118 370.727 897.878 370.247 899.371 369.66V376.06C897.664 376.807 895.691 377.367 893.451 377.74C891.264 378.113 888.918 378.3 886.411 378.3ZM873.931 356.3H894.011V353.66C894.011 351.047 893.291 349.02 891.851 347.58C890.411 346.087 887.984 345.34 884.571 345.34C880.518 345.34 877.718 346.22 876.171 347.98C874.678 349.74 873.931 352.513 873.931 356.3ZM936.617 377.5V325.98H959.577C963.524 325.98 966.777 326.727 969.337 328.22C971.897 329.713 973.79 331.767 975.017 334.38C976.244 336.94 976.857 339.873 976.857 343.18C976.857 348.3 975.257 352.407 972.057 355.5C968.91 358.593 964.644 360.14 959.257 360.14H945.337V377.5H936.617ZM945.337 353.26H957.657C961.124 353.26 963.737 352.353 965.497 350.54C967.257 348.727 968.137 346.273 968.137 343.18C968.137 339.873 967.284 337.313 965.577 335.5C963.924 333.687 961.417 332.78 958.057 332.78H945.337V353.26ZM987.805 377.5V323.58H996.525V343.26C998.178 341.927 1000.15 340.86 1002.44 340.06C1004.74 339.207 1007.32 338.78 1010.2 338.78C1015 338.78 1018.55 339.927 1020.84 342.22C1023.14 344.513 1024.28 348.087 1024.28 352.94V377.5H1015.64V353.34C1015.64 350.407 1015 348.353 1013.72 347.18C1012.5 346.007 1010.34 345.42 1007.24 345.42C1005.32 345.42 1003.38 345.847 1001.4 346.7C999.431 347.5 997.805 348.567 996.525 349.9V377.5H987.805ZM1044.58 391.58C1041.7 391.58 1039.25 391.207 1037.22 390.46V383.98C1038.13 384.3 1038.96 384.513 1039.7 384.62C1040.5 384.727 1041.3 384.78 1042.1 384.78C1043.76 384.78 1045.09 384.513 1046.1 383.98C1047.12 383.447 1048 382.593 1048.74 381.42C1049.54 380.3 1050.4 378.833 1051.3 377.02L1034.42 339.58H1043.46L1055.62 367.74L1067.94 339.58H1076.9L1061.46 375.34C1060.13 378.54 1058.69 381.34 1057.14 383.74C1055.65 386.193 1053.89 388.113 1051.86 389.5C1049.89 390.887 1047.46 391.58 1044.58 391.58ZM1096.88 378.3C1094.27 378.3 1091.76 378.113 1089.36 377.74C1087.02 377.367 1085.07 376.913 1083.52 376.38V369.02C1085.34 369.713 1087.34 370.247 1089.52 370.62C1091.71 370.993 1093.79 371.18 1095.76 371.18C1098.75 371.18 1100.88 370.913 1102.16 370.38C1103.44 369.847 1104.08 368.807 1104.08 367.26C1104.08 366.14 1103.68 365.26 1102.88 364.62C1102.14 363.98 1100.99 363.393 1099.44 362.86C1097.95 362.327 1096.03 361.687 1093.68 360.94C1091.44 360.193 1089.5 359.393 1087.84 358.54C1086.19 357.633 1084.91 356.487 1084 355.1C1083.1 353.713 1082.64 351.9 1082.64 349.66C1082.64 346.193 1083.9 343.527 1086.4 341.66C1088.91 339.74 1092.94 338.78 1098.48 338.78C1100.67 338.78 1102.75 338.94 1104.72 339.26C1106.7 339.58 1108.38 339.98 1109.76 340.46V347.74C1108.27 347.153 1106.62 346.7 1104.8 346.38C1103.04 346.06 1101.39 345.9 1099.84 345.9C1097.07 345.9 1094.96 346.14 1093.52 346.62C1092.14 347.1 1091.44 348.06 1091.44 349.5C1091.44 350.993 1092.16 352.06 1093.6 352.7C1095.1 353.287 1097.47 354.113 1100.72 355.18C1103.71 356.087 1106.08 357.047 1107.84 358.06C1109.6 359.073 1110.86 360.3 1111.6 361.74C1112.4 363.127 1112.8 364.94 1112.8 367.18C1112.8 370.913 1111.44 373.713 1108.72 375.58C1106 377.393 1102.06 378.3 1096.88 378.3ZM1128.55 331.66V324.46H1138.07V331.66H1128.55ZM1129.27 377.5V346.22H1123.51L1124.31 339.58H1137.99V377.5H1129.27ZM1170.32 378.3C1163.5 378.3 1158.48 376.593 1155.28 373.18C1152.14 369.767 1150.56 364.887 1150.56 358.54C1150.56 352.193 1152.16 347.313 1155.36 343.9C1158.56 340.487 1163.55 338.78 1170.32 338.78C1177.15 338.78 1182.16 340.487 1185.36 343.9C1188.56 347.313 1190.16 352.193 1190.16 358.54C1190.16 364.887 1188.56 369.767 1185.36 373.18C1182.22 376.593 1177.2 378.3 1170.32 378.3ZM1170.32 370.94C1174.32 370.94 1177.15 369.98 1178.8 368.06C1180.51 366.087 1181.36 362.913 1181.36 358.54C1181.36 354.167 1180.51 351.02 1178.8 349.1C1177.15 347.18 1174.32 346.22 1170.32 346.22C1166.38 346.22 1163.55 347.18 1161.84 349.1C1160.19 351.02 1159.36 354.167 1159.36 358.54C1159.36 362.913 1160.19 366.087 1161.84 368.06C1163.55 369.98 1166.38 370.94 1170.32 370.94ZM1249.25 378.3C1240.77 378.3 1234.34 375.98 1229.97 371.34C1225.65 366.7 1223.49 360.433 1223.49 352.54C1223.49 346.887 1224.39 342.033 1226.21 337.98C1228.07 333.873 1230.9 330.727 1234.69 328.54C1238.47 326.3 1243.3 325.18 1249.17 325.18C1252.15 325.18 1254.87 325.42 1257.33 325.9C1259.83 326.327 1262.15 326.913 1264.29 327.66V335.26C1262.15 334.407 1259.86 333.767 1257.41 333.34C1255.01 332.86 1252.47 332.62 1249.81 332.62C1243.41 332.62 1238.87 334.327 1236.21 337.74C1233.59 341.153 1232.29 346.087 1232.29 352.54C1232.29 358.567 1233.73 363.153 1236.61 366.3C1239.49 369.393 1243.94 370.94 1249.97 370.94C1252.42 370.94 1254.87 370.753 1257.33 370.38C1259.83 369.953 1262.18 369.313 1264.37 368.46V376.14C1262.23 376.833 1259.91 377.367 1257.41 377.74C1254.95 378.113 1252.23 378.3 1249.25 378.3ZM1286.26 378.3C1283.17 378.3 1280.82 377.553 1279.22 376.06C1277.62 374.513 1276.82 371.98 1276.82 368.46V323.58H1285.54V367.66C1285.54 369.153 1285.81 370.167 1286.34 370.7C1286.87 371.233 1287.67 371.5 1288.74 371.5C1290.02 371.5 1291.25 371.34 1292.42 371.02V377.34C1291.41 377.713 1290.42 377.953 1289.46 378.06C1288.55 378.22 1287.49 378.3 1286.26 378.3ZM1303.63 331.66V324.46H1313.15V331.66H1303.63ZM1304.35 377.5V346.22H1298.59L1299.39 339.58H1313.07V377.5H1304.35ZM1327.24 377.5V339.58H1335.24L1335.64 343.58C1337.35 342.247 1339.38 341.127 1341.72 340.22C1344.12 339.26 1346.76 338.78 1349.64 338.78C1354.55 338.78 1358.12 339.927 1360.36 342.22C1362.6 344.513 1363.72 348.087 1363.72 352.94V377.5H1355.08V353.34C1355.08 350.407 1354.47 348.353 1353.24 347.18C1352.07 346.007 1349.83 345.42 1346.52 345.42C1344.55 345.42 1342.6 345.82 1340.68 346.62C1338.82 347.42 1337.24 348.46 1335.96 349.74V377.5H1327.24ZM1380.69 331.66V324.46H1390.21V331.66H1380.69ZM1381.41 377.5V346.22H1375.65L1376.45 339.58H1390.13V377.5H1381.41ZM1422.94 378.3C1416.28 378.3 1411.24 376.62 1407.82 373.26C1404.41 369.847 1402.7 364.94 1402.7 358.54C1402.7 351.873 1404.57 346.913 1408.3 343.66C1412.09 340.407 1417.13 338.78 1423.42 338.78C1426.04 338.78 1428.22 338.967 1429.98 339.34C1431.8 339.713 1433.53 340.3 1435.18 341.1V347.58C1432.41 346.193 1429.05 345.5 1425.1 345.5C1420.73 345.5 1417.37 346.487 1415.02 348.46C1412.68 350.38 1411.5 353.74 1411.5 358.54C1411.5 363.073 1412.54 366.407 1414.62 368.54C1416.7 370.62 1420.14 371.66 1424.94 371.66C1428.73 371.66 1432.17 370.94 1435.26 369.5V376.14C1433.5 376.833 1431.61 377.367 1429.58 377.74C1427.61 378.113 1425.4 378.3 1422.94 378.3Z" fill="#F5F5F5"/>
<path d="M567.979 194.5V104.34H605.779C619.312 104.34 629.486 107.84 636.299 114.84C643.206 121.747 646.659 133.413 646.659 149.84C646.659 165.333 643.252 176.673 636.439 183.86C629.719 190.953 619.499 194.5 605.779 194.5H567.979ZM586.879 179.94H603.119C608.439 179.94 612.919 179.147 616.559 177.56C620.199 175.88 622.906 172.893 624.679 168.6C626.546 164.213 627.479 157.96 627.479 149.84C627.479 141.72 626.639 135.513 624.959 131.22C623.279 126.927 620.666 123.987 617.119 122.4C613.572 120.813 608.906 120.02 603.119 120.02H586.879V179.94ZM666.854 194.5V128.14H684.354L685.194 135C688.181 133.133 691.867 131.453 696.254 129.96C700.734 128.373 705.121 127.3 709.414 126.74V141.02C706.894 141.393 704.141 141.953 701.154 142.7C698.167 143.447 695.321 144.287 692.614 145.22C689.907 146.153 687.621 147.133 685.754 148.16V194.5H666.854ZM761.042 194.5L793.802 101.82H813.122L780.362 194.5H761.042ZM868.284 194.5L902.724 104.34H923.444L957.745 194.5H938.144L929.604 172.8H896.424L888.024 194.5H868.284ZM899.224 158.24H926.804L912.944 121.98L899.224 158.24ZM989.26 195.9C982.82 195.9 978.106 194.407 975.12 191.42C972.226 188.433 970.78 183.673 970.78 177.14V100.14H989.68V175.6C989.68 177.933 990.146 179.567 991.08 180.5C992.013 181.34 993.366 181.76 995.14 181.76C997.566 181.76 999.76 181.433 1001.72 180.78V193.8C998.173 195.2 994.02 195.9 989.26 195.9ZM1027.68 219.14C1024.79 219.14 1022.22 218.953 1019.98 218.58C1017.74 218.3 1015.55 217.74 1013.4 216.9V203.6C1014.99 204.16 1016.43 204.533 1017.74 204.72C1019.14 204.907 1020.54 205 1021.94 205C1025.77 205 1028.71 204.113 1030.76 202.34C1032.91 200.567 1035.05 197.58 1037.2 193.38L1007.52 128.14H1027.26L1046.72 173.22L1066.04 128.14H1085.64L1059.46 189.88C1057.03 195.667 1054.37 200.753 1051.48 205.14C1048.68 209.62 1045.37 213.073 1041.54 215.5C1037.71 217.927 1033.09 219.14 1027.68 219.14ZM1114.88 195.9C1110.68 195.9 1106.76 195.153 1103.12 193.66C1099.57 192.073 1096.68 189.787 1094.44 186.8C1092.29 183.72 1091.22 179.893 1091.22 175.32C1091.22 168.787 1093.5 163.56 1098.08 159.64C1102.74 155.72 1109.6 153.76 1118.66 153.76H1138.26V151.94C1138.26 147.833 1137.09 144.94 1134.76 143.26C1132.52 141.58 1127.94 140.74 1121.04 140.74C1113.48 140.74 1106.2 141.907 1099.2 144.24V130.94C1102.28 129.727 1106.01 128.747 1110.4 128C1114.88 127.16 1119.73 126.74 1124.96 126.74C1134.94 126.74 1142.64 128.793 1148.06 132.9C1153.56 136.913 1156.32 143.4 1156.32 152.36V194.5H1139.94L1138.96 188.48C1136.34 190.813 1133.12 192.633 1129.3 193.94C1125.47 195.247 1120.66 195.9 1114.88 195.9ZM1120.06 183.44C1124.26 183.44 1127.9 182.74 1130.98 181.34C1134.06 179.94 1136.48 178.167 1138.26 176.02V165.52H1119.08C1111.7 165.52 1108.02 168.553 1108.02 174.62C1108.02 180.5 1112.03 183.44 1120.06 183.44ZM1199.4 195.9C1195.2 195.9 1191.28 195.153 1187.64 193.66C1184.09 192.073 1181.2 189.787 1178.96 186.8C1176.81 183.72 1175.74 179.893 1175.74 175.32C1175.74 168.787 1178.02 163.56 1182.6 159.64C1187.26 155.72 1194.12 153.76 1203.18 153.76H1222.78V151.94C1222.78 147.833 1221.61 144.94 1219.28 143.26C1217.04 141.58 1212.46 140.74 1205.56 140.74C1198 140.74 1190.72 141.907 1183.72 144.24V130.94C1186.8 129.727 1190.53 128.747 1194.92 128C1199.4 127.16 1204.25 126.74 1209.48 126.74C1219.46 126.74 1227.16 128.793 1232.58 132.9C1238.08 136.913 1240.84 143.4 1240.84 152.36V194.5H1224.46L1223.48 188.48C1220.86 190.813 1217.64 192.633 1213.82 193.94C1209.99 195.247 1205.18 195.9 1199.4 195.9ZM1204.58 183.44C1208.78 183.44 1212.42 182.74 1215.5 181.34C1218.58 179.94 1221 178.167 1222.78 176.02V165.52H1203.6C1196.22 165.52 1192.54 168.553 1192.54 174.62C1192.54 180.5 1196.55 183.44 1204.58 183.44ZM1298.02 194.5L1332.46 104.34H1353.18L1387.48 194.5H1367.88L1359.34 172.8H1326.16L1317.76 194.5H1298.02ZM1328.96 158.24H1356.54L1342.68 121.98L1328.96 158.24ZM1429.05 195.9C1423.17 195.9 1417.9 194.873 1413.23 192.82C1408.66 190.673 1405.07 187.22 1402.45 182.46C1399.84 177.607 1398.53 171.213 1398.53 163.28C1398.53 155.347 1399.98 148.673 1402.87 143.26C1405.77 137.847 1409.64 133.74 1414.49 130.94C1419.35 128.14 1424.67 126.74 1430.45 126.74C1437.73 126.74 1443.94 128.42 1449.07 131.78V100.14H1467.97V194.5H1451.73L1450.61 188.34C1447.72 190.86 1444.55 192.773 1441.09 194.08C1437.73 195.293 1433.72 195.9 1429.05 195.9ZM1434.23 182.04C1440.11 182.04 1445.06 180.033 1449.07 176.02V145.78C1445.15 142.327 1440.58 140.6 1435.35 140.6C1423.59 140.6 1417.71 148.16 1417.71 163.28C1417.71 170.373 1419.16 175.273 1422.05 177.98C1424.95 180.687 1429.01 182.04 1434.23 182.04ZM1524.13 195.9C1512.65 195.9 1503.55 193.053 1496.83 187.36C1490.11 181.573 1486.75 172.847 1486.75 161.18C1486.75 150.633 1489.55 142.28 1495.15 136.12C1500.84 129.867 1509.29 126.74 1520.49 126.74C1530.75 126.74 1538.59 129.447 1544.01 134.86C1549.51 140.18 1552.27 147.18 1552.27 155.86V167.9H1504.25C1505.27 173.22 1507.7 176.86 1511.53 178.82C1515.45 180.78 1520.95 181.76 1528.05 181.76C1531.59 181.76 1535.19 181.433 1538.83 180.78C1542.56 180.127 1545.73 179.287 1548.35 178.26V191.7C1545.27 193.1 1541.67 194.127 1537.57 194.78C1533.46 195.527 1528.98 195.9 1524.13 195.9ZM1504.25 156.28H1535.75V152.64C1535.75 148.813 1534.63 145.827 1532.39 143.68C1530.15 141.44 1526.37 140.32 1521.05 140.32C1514.79 140.32 1510.41 141.58 1507.89 144.1C1505.46 146.62 1504.25 150.68 1504.25 156.28ZM1590.9 195.9C1584.46 195.9 1579.75 194.407 1576.76 191.42C1573.87 188.433 1572.42 183.673 1572.42 177.14V100.14H1591.32V175.6C1591.32 177.933 1591.79 179.567 1592.72 180.5C1593.66 181.34 1595.01 181.76 1596.78 181.76C1599.21 181.76 1601.4 181.433 1603.36 180.78V193.8C1599.82 195.2 1595.66 195.9 1590.9 195.9Z" fill="white"/>
<defs>
<filter id="filter0_d_366_313" x="26.8301" y="7.00781" width="473.169" height="379.961" filterUnits="userSpaceOnUse" color-interpolation-filters="sRGB">
<feFlood flood-opacity="0" result="BackgroundImageFix"/>
<feColorMatrix in="SourceAlpha" type="matrix" values="0 0 0 0 0 0 0 0 0 0 0 0 0 0 0 0 0 0 127 0" result="hardAlpha"/>
<feOffset dx="-4" dy="4"/>
<feGaussianBlur stdDeviation="2"/>
<feComposite in2="hardAlpha" operator="out"/>
<feColorMatrix type="matrix" values="0 0 0 0 0 0 0 0 0 0 0 0 0 0 0 0 0 0 0.1 0"/>
<feBlend mode="normal" in2="BackgroundImageFix" result="effect1_dropShadow_366_313"/>
<feBlend mode="normal" in="SourceGraphic" in2="effect1_dropShadow_366_313" result="shape"/>
</filter>
<filter id="filter1_dd_366_313" x="144.243" y="89.9766" width="98.1357" height="127.676" filterUnits="userSpaceOnUse" color-interpolation-filters="sRGB">
<feFlood flood-opacity="0" result="BackgroundImageFix"/>
<feColorMatrix in="SourceAlpha" type="matrix" values="0 0 0 0 0 0 0 0 0 0 0 0 0 0 0 0 0 0 127 0" result="hardAlpha"/>
<feOffset dy="4"/>
<feGaussianBlur stdDeviation="2"/>
<feComposite in2="hardAlpha" operator="out"/>
<feColorMatrix type="matrix" values="0 0 0 0 0 0 0 0 0 0 0 0 0 0 0 0 0 0 0.1 0"/>
<feBlend mode="normal" in2="BackgroundImageFix" result="effect1_dropShadow_366_313"/>
<feColorMatrix in="SourceAlpha" type="matrix" values="0 0 0 0 0 0 0 0 0 0 0 0 0 0 0 0 0 0 127 0" result="hardAlpha"/>
<feOffset dy="-4"/>
<feGaussianBlur stdDeviation="2"/>
<feComposite in2="hardAlpha" operator="out"/>
<feColorMatrix type="matrix" values="0 0 0 0 0 0 0 0 0 0 0 0 0 0 0 0 0 0 0.1 0"/>
<feBlend mode="normal" in2="effect1_dropShadow_366_313" result="effect2_dropShadow_366_313"/>
<feBlend mode="normal" in="SourceGraphic" in2="effect2_dropShadow_366_313" result="shape"/>
</filter>
<clipPath id="clip0_366_313">
<rect width="85.2271" height="66.8452" fill="white" transform="matrix(0 1 -1 0 434.95 250.568)"/>
</clipPath>
</defs>
</svg>
