<svg width="1607" height="450" viewBox="0 0 1607 450" fill="none" xmlns="http://www.w3.org/2000/svg">
<path d="M25.6748 368.179L46.7356 323.009L88.8571 338.35L65.965 382.668C65.965 382.668 74.2751 397.16 68.7599 405.273C64.2962 411.839 57.458 414.671 49.2292 413.362C41.8692 412.19 41.3916 404.649 34.4647 402.054C27.8548 399.578 22.4093 403.914 16.2955 400.508C8.47246 396.151 4.22935 389.155 6.27036 380.885C8.72089 370.956 25.6748 368.179 25.6748 368.179Z" fill="#1264CE"/>
<g filter="url(#filter0_d_366_330)">
<path d="M34.8318 348.579C34.8318 348.579 72.3749 356.25 81.5317 348.579C90.6886 340.909 99.8455 315.341 119.075 286.363C138.304 257.386 246.355 257.386 286.645 286.363C326.935 315.341 347.067 385.945 407.516 378.409C459.925 371.875 500 286.363 500 286.363C500 286.363 452.077 348.97 407.516 348.579C354.159 348.112 312.284 257.386 312.284 257.386L198.715 9.92186C196.93 6.03262 191.402 6.03686 189.623 9.92883L34.8318 348.579Z" fill="#2A85FF"/>
</g>
<g filter="url(#filter1_dd_366_330)">
<path d="M148.395 206.615L192.275 99.2187C192.957 97.5489 195.327 97.5644 195.987 99.2429L238.24 206.634C239.035 208.654 236.279 210.557 234.616 209.161C225.388 201.412 208.787 189.428 194.161 189.204C179.013 188.972 161.586 201.288 151.995 209.183C150.316 210.565 147.573 208.628 148.395 206.615Z" fill="white"/>
</g>
<ellipse cx="243.572" cy="441.478" rx="243.572" ry="8.52272" fill="#1264CE"/>
<g clip-path="url(#clip0_366_330)">
<path d="M424.073 260.304C424.073 257.575 421.695 255.361 418.762 255.361H408.073C407.348 252.614 404.704 250.568 401.529 250.568C398.352 250.568 395.708 252.614 394.983 255.361H384.296C381.363 255.361 378.985 257.575 378.985 260.304C378.985 263.033 381.363 265.247 384.296 265.247H418.762C421.695 265.247 424.073 263.033 424.073 260.304Z" fill="#1264CE"/>
<path d="M435.001 309.283C435.001 305.23 431.471 301.944 427.116 301.944H409.414V299.697V289.062V285.618L409.445 284.419H427.116C431.471 284.419 435.001 281.133 435.001 277.08C435.001 273.026 431.471 269.74 427.116 269.74H375.94C371.585 269.74 368.055 273.026 368.055 277.08C368.055 281.133 371.585 284.419 375.94 284.419H393.603C393.603 284.419 393.642 285.209 393.642 285.618V289.062V299.697V301.944H375.94C371.585 301.944 368.055 305.23 368.055 309.283C368.055 313.337 371.585 316.623 375.94 316.623H427.116C431.471 316.623 435.001 313.337 435.001 309.283Z" fill="#1264CE"/>
<path d="M408.073 331.003H418.762C421.695 331.003 424.073 328.789 424.073 326.06C424.073 323.331 421.695 321.117 418.762 321.117H384.296C381.363 321.117 378.985 323.331 378.985 326.06C378.985 328.789 381.363 331.003 384.296 331.003H394.983C395.708 333.751 398.352 335.796 401.529 335.796C404.704 335.796 407.348 333.751 408.073 331.003Z" fill="#1264CE"/>
</g>
<path d="M758.2 378.3C749.72 378.3 743.293 375.98 738.92 371.34C734.6 366.7 732.44 360.433 732.44 352.54C732.44 346.887 733.347 342.033 735.16 337.98C737.027 333.873 739.853 330.727 743.64 328.54C747.427 326.3 752.253 325.18 758.12 325.18C761.107 325.18 763.827 325.42 766.28 325.9C768.787 326.327 771.107 326.913 773.24 327.66V335.26C771.107 334.407 768.813 333.767 766.36 333.34C763.96 332.86 761.427 332.62 758.76 332.62C752.36 332.62 747.827 334.327 745.16 337.74C742.547 341.153 741.24 346.087 741.24 352.54C741.24 358.567 742.68 363.153 745.56 366.3C748.44 369.393 752.893 370.94 758.92 370.94C761.373 370.94 763.827 370.753 766.28 370.38C768.787 369.953 771.133 369.313 773.32 368.46V376.14C771.187 376.833 768.867 377.367 766.36 377.74C763.907 378.113 761.187 378.3 758.2 378.3ZM803.7 378.3C796.873 378.3 791.86 376.593 788.66 373.18C785.513 369.767 783.94 364.887 783.94 358.54C783.94 352.193 785.54 347.313 788.74 343.9C791.94 340.487 796.927 338.78 803.7 338.78C810.527 338.78 815.54 340.487 818.74 343.9C821.94 347.313 823.54 352.193 823.54 358.54C823.54 364.887 821.94 369.767 818.74 373.18C815.593 376.593 810.58 378.3 803.7 378.3ZM803.7 370.94C807.7 370.94 810.527 369.98 812.18 368.06C813.887 366.087 814.74 362.913 814.74 358.54C814.74 354.167 813.887 351.02 812.18 349.1C810.527 347.18 807.7 346.22 803.7 346.22C799.753 346.22 796.927 347.18 795.22 349.1C793.567 351.02 792.74 354.167 792.74 358.54C792.74 362.913 793.567 366.087 795.22 368.06C796.927 369.98 799.753 370.94 803.7 370.94ZM836.024 377.5V339.58H844.024L844.504 343.98C846.318 342.807 848.478 341.74 850.984 340.78C853.491 339.82 855.971 339.153 858.424 338.78V345.42C856.931 345.687 855.304 346.087 853.544 346.62C851.838 347.1 850.211 347.66 848.664 348.3C847.118 348.887 845.811 349.5 844.744 350.14V377.5H836.024ZM886.412 378.3C879.799 378.3 874.679 376.673 871.052 373.42C867.425 370.167 865.612 365.18 865.612 358.46C865.612 352.38 867.159 347.58 870.252 344.06C873.345 340.54 878.039 338.78 884.332 338.78C890.092 338.78 894.412 340.3 897.292 343.34C900.225 346.327 901.692 350.193 901.692 354.94V361.98H873.932C874.359 365.66 875.692 368.193 877.932 369.58C880.172 370.967 883.585 371.66 888.172 371.66C890.092 371.66 892.065 371.473 894.092 371.1C896.119 370.727 897.879 370.247 899.372 369.66V376.06C897.665 376.807 895.692 377.367 893.452 377.74C891.265 378.113 888.919 378.3 886.412 378.3ZM873.932 356.3H894.012V353.66C894.012 351.047 893.292 349.02 891.852 347.58C890.412 346.087 887.985 345.34 884.572 345.34C880.519 345.34 877.719 346.22 876.172 347.98C874.679 349.74 873.932 352.513 873.932 356.3ZM936.618 377.5V325.98H959.578C963.525 325.98 966.778 326.727 969.338 328.22C971.898 329.713 973.791 331.767 975.018 334.38C976.245 336.94 976.858 339.873 976.858 343.18C976.858 348.3 975.258 352.407 972.058 355.5C968.911 358.593 964.645 360.14 959.258 360.14H945.338V377.5H936.618ZM945.338 353.26H957.658C961.125 353.26 963.738 352.353 965.498 350.54C967.258 348.727 968.138 346.273 968.138 343.18C968.138 339.873 967.285 337.313 965.578 335.5C963.925 333.687 961.418 332.78 958.058 332.78H945.338V353.26ZM987.806 377.5V323.58H996.526V343.26C998.179 341.927 1000.15 340.86 1002.45 340.06C1004.74 339.207 1007.33 338.78 1010.21 338.78C1015.01 338.78 1018.55 339.927 1020.85 342.22C1023.14 344.513 1024.29 348.087 1024.29 352.94V377.5H1015.65V353.34C1015.65 350.407 1015.01 348.353 1013.73 347.18C1012.5 346.007 1010.34 345.42 1007.25 345.42C1005.33 345.42 1003.38 345.847 1001.41 346.7C999.432 347.5 997.806 348.567 996.526 349.9V377.5H987.806ZM1044.58 391.58C1041.7 391.58 1039.25 391.207 1037.22 390.46V383.98C1038.13 384.3 1038.96 384.513 1039.7 384.62C1040.5 384.727 1041.3 384.78 1042.1 384.78C1043.76 384.78 1045.09 384.513 1046.1 383.98C1047.12 383.447 1048 382.593 1048.74 381.42C1049.54 380.3 1050.4 378.833 1051.3 377.02L1034.42 339.58H1043.46L1055.62 367.74L1067.94 339.58H1076.9L1061.46 375.34C1060.13 378.54 1058.69 381.34 1057.14 383.74C1055.65 386.193 1053.89 388.113 1051.86 389.5C1049.89 390.887 1047.46 391.58 1044.58 391.58ZM1096.88 378.3C1094.27 378.3 1091.76 378.113 1089.36 377.74C1087.02 377.367 1085.07 376.913 1083.52 376.38V369.02C1085.34 369.713 1087.34 370.247 1089.52 370.62C1091.71 370.993 1093.79 371.18 1095.76 371.18C1098.75 371.18 1100.88 370.913 1102.16 370.38C1103.44 369.847 1104.08 368.807 1104.08 367.26C1104.08 366.14 1103.68 365.26 1102.88 364.62C1102.14 363.98 1100.99 363.393 1099.44 362.86C1097.95 362.327 1096.03 361.687 1093.68 360.94C1091.44 360.193 1089.5 359.393 1087.84 358.54C1086.19 357.633 1084.91 356.487 1084 355.1C1083.1 353.713 1082.64 351.9 1082.64 349.66C1082.64 346.193 1083.9 343.527 1086.4 341.66C1088.91 339.74 1092.94 338.78 1098.48 338.78C1100.67 338.78 1102.75 338.94 1104.72 339.26C1106.7 339.58 1108.38 339.98 1109.76 340.46V347.74C1108.27 347.153 1106.62 346.7 1104.8 346.38C1103.04 346.06 1101.39 345.9 1099.84 345.9C1097.07 345.9 1094.96 346.14 1093.52 346.62C1092.14 347.1 1091.44 348.06 1091.44 349.5C1091.44 350.993 1092.16 352.06 1093.6 352.7C1095.1 353.287 1097.47 354.113 1100.72 355.18C1103.71 356.087 1106.08 357.047 1107.84 358.06C1109.6 359.073 1110.86 360.3 1111.6 361.74C1112.4 363.127 1112.8 364.94 1112.8 367.18C1112.8 370.913 1111.44 373.713 1108.72 375.58C1106 377.393 1102.06 378.3 1096.88 378.3ZM1128.55 331.66V324.46H1138.07V331.66H1128.55ZM1129.27 377.5V346.22H1123.51L1124.31 339.58H1137.99V377.5H1129.27ZM1170.33 378.3C1163.5 378.3 1158.49 376.593 1155.29 373.18C1152.14 369.767 1150.57 364.887 1150.57 358.54C1150.57 352.193 1152.17 347.313 1155.37 343.9C1158.57 340.487 1163.55 338.78 1170.33 338.78C1177.15 338.78 1182.17 340.487 1185.37 343.9C1188.57 347.313 1190.17 352.193 1190.17 358.54C1190.17 364.887 1188.57 369.767 1185.37 373.18C1182.22 376.593 1177.21 378.3 1170.33 378.3ZM1170.33 370.94C1174.33 370.94 1177.15 369.98 1178.81 368.06C1180.51 366.087 1181.37 362.913 1181.37 358.54C1181.37 354.167 1180.51 351.02 1178.81 349.1C1177.15 347.18 1174.33 346.22 1170.33 346.22C1166.38 346.22 1163.55 347.18 1161.85 349.1C1160.19 351.02 1159.37 354.167 1159.37 358.54C1159.37 362.913 1160.19 366.087 1161.85 368.06C1163.55 369.98 1166.38 370.94 1170.33 370.94ZM1249.25 378.3C1240.77 378.3 1234.34 375.98 1229.97 371.34C1225.65 366.7 1223.49 360.433 1223.49 352.54C1223.49 346.887 1224.39 342.033 1226.21 337.98C1228.07 333.873 1230.9 330.727 1234.69 328.54C1238.47 326.3 1243.3 325.18 1249.17 325.18C1252.15 325.18 1254.87 325.42 1257.33 325.9C1259.83 326.327 1262.15 326.913 1264.29 327.66V335.26C1262.15 334.407 1259.86 333.767 1257.41 333.34C1255.01 332.86 1252.47 332.62 1249.81 332.62C1243.41 332.62 1238.87 334.327 1236.21 337.74C1233.59 341.153 1232.29 346.087 1232.29 352.54C1232.29 358.567 1233.73 363.153 1236.61 366.3C1239.49 369.393 1243.94 370.94 1249.97 370.94C1252.42 370.94 1254.87 370.753 1257.33 370.38C1259.83 369.953 1262.18 369.313 1264.37 368.46V376.14C1262.23 376.833 1259.91 377.367 1257.41 377.74C1254.95 378.113 1252.23 378.3 1249.25 378.3ZM1286.26 378.3C1283.17 378.3 1280.82 377.553 1279.22 376.06C1277.62 374.513 1276.82 371.98 1276.82 368.46V323.58H1285.54V367.66C1285.54 369.153 1285.81 370.167 1286.34 370.7C1286.87 371.233 1287.67 371.5 1288.74 371.5C1290.02 371.5 1291.25 371.34 1292.42 371.02V377.34C1291.41 377.713 1290.42 377.953 1289.46 378.06C1288.55 378.22 1287.49 378.3 1286.26 378.3ZM1303.63 331.66V324.46H1313.15V331.66H1303.63ZM1304.35 377.5V346.22H1298.59L1299.39 339.58H1313.07V377.5H1304.35ZM1327.24 377.5V339.58H1335.24L1335.64 343.58C1337.35 342.247 1339.38 341.127 1341.72 340.22C1344.12 339.26 1346.76 338.78 1349.64 338.78C1354.55 338.78 1358.12 339.927 1360.36 342.22C1362.6 344.513 1363.72 348.087 1363.72 352.94V377.5H1355.08V353.34C1355.08 350.407 1354.47 348.353 1353.24 347.18C1352.07 346.007 1349.83 345.42 1346.52 345.42C1344.55 345.42 1342.6 345.82 1340.68 346.62C1338.82 347.42 1337.24 348.46 1335.96 349.74V377.5H1327.24ZM1380.69 331.66V324.46H1390.21V331.66H1380.69ZM1381.41 377.5V346.22H1375.65L1376.45 339.58H1390.13V377.5H1381.41ZM1422.95 378.3C1416.28 378.3 1411.24 376.62 1407.83 373.26C1404.41 369.847 1402.71 364.94 1402.71 358.54C1402.71 351.873 1404.57 346.913 1408.31 343.66C1412.09 340.407 1417.13 338.78 1423.43 338.78C1426.04 338.78 1428.23 338.967 1429.99 339.34C1431.8 339.713 1433.53 340.3 1435.19 341.1V347.58C1432.41 346.193 1429.05 345.5 1425.11 345.5C1420.73 345.5 1417.37 346.487 1415.03 348.46C1412.68 350.38 1411.51 353.74 1411.51 358.54C1411.51 363.073 1412.55 366.407 1414.63 368.54C1416.71 370.62 1420.15 371.66 1424.95 371.66C1428.73 371.66 1432.17 370.94 1435.27 369.5V376.14C1433.51 376.833 1431.61 377.367 1429.59 377.74C1427.61 378.113 1425.4 378.3 1422.95 378.3Z" fill="#474747"/>
<path d="M567.98 194.5V104.34H605.78C619.313 104.34 629.487 107.84 636.3 114.84C643.207 121.747 646.66 133.413 646.66 149.84C646.66 165.333 643.253 176.673 636.44 183.86C629.72 190.953 619.5 194.5 605.78 194.5H567.98ZM586.88 179.94H603.12C608.44 179.94 612.92 179.147 616.56 177.56C620.2 175.88 622.907 172.893 624.68 168.6C626.547 164.213 627.48 157.96 627.48 149.84C627.48 141.72 626.64 135.513 624.96 131.22C623.28 126.927 620.667 123.987 617.12 122.4C613.573 120.813 608.907 120.02 603.12 120.02H586.88V179.94ZM666.855 194.5V128.14H684.355L685.195 135C688.182 133.133 691.868 131.453 696.255 129.96C700.735 128.373 705.122 127.3 709.415 126.74V141.02C706.895 141.393 704.142 141.953 701.155 142.7C698.168 143.447 695.322 144.287 692.615 145.22C689.908 146.153 687.622 147.133 685.755 148.16V194.5H666.855ZM761.043 194.5L793.803 101.82H813.123L780.363 194.5H761.043ZM868.285 194.5L902.725 104.34H923.445L957.745 194.5H938.145L929.605 172.8H896.425L888.025 194.5H868.285ZM899.225 158.24H926.805L912.945 121.98L899.225 158.24ZM989.261 195.9C982.821 195.9 978.107 194.407 975.121 191.42C972.227 188.433 970.781 183.673 970.781 177.14V100.14H989.681V175.6C989.681 177.933 990.147 179.567 991.081 180.5C992.014 181.34 993.367 181.76 995.141 181.76C997.567 181.76 999.761 181.433 1001.72 180.78V193.8C998.174 195.2 994.021 195.9 989.261 195.9ZM1027.68 219.14C1024.79 219.14 1022.22 218.953 1019.98 218.58C1017.74 218.3 1015.55 217.74 1013.4 216.9V203.6C1014.99 204.16 1016.43 204.533 1017.74 204.72C1019.14 204.907 1020.54 205 1021.94 205C1025.77 205 1028.71 204.113 1030.76 202.34C1032.91 200.567 1035.05 197.58 1037.2 193.38L1007.52 128.14H1027.26L1046.72 173.22L1066.04 128.14H1085.64L1059.46 189.88C1057.03 195.667 1054.37 200.753 1051.48 205.14C1048.68 209.62 1045.37 213.073 1041.54 215.5C1037.71 217.927 1033.09 219.14 1027.68 219.14ZM1114.88 195.9C1110.68 195.9 1106.76 195.153 1103.12 193.66C1099.57 192.073 1096.68 189.787 1094.44 186.8C1092.29 183.72 1091.22 179.893 1091.22 175.32C1091.22 168.787 1093.51 163.56 1098.08 159.64C1102.75 155.72 1109.61 153.76 1118.66 153.76H1138.26V151.94C1138.26 147.833 1137.09 144.94 1134.76 143.26C1132.52 141.58 1127.95 140.74 1121.04 140.74C1113.48 140.74 1106.2 141.907 1099.2 144.24V130.94C1102.28 129.727 1106.01 128.747 1110.4 128C1114.88 127.16 1119.73 126.74 1124.96 126.74C1134.95 126.74 1142.65 128.793 1148.06 132.9C1153.57 136.913 1156.32 143.4 1156.32 152.36V194.5H1139.94L1138.96 188.48C1136.35 190.813 1133.13 192.633 1129.3 193.94C1125.47 195.247 1120.67 195.9 1114.88 195.9ZM1120.06 183.44C1124.26 183.44 1127.9 182.74 1130.98 181.34C1134.06 179.94 1136.49 178.167 1138.26 176.02V165.52H1119.08C1111.71 165.52 1108.02 168.553 1108.02 174.62C1108.02 180.5 1112.03 183.44 1120.06 183.44ZM1199.4 195.9C1195.2 195.9 1191.28 195.153 1187.64 193.66C1184.09 192.073 1181.2 189.787 1178.96 186.8C1176.81 183.72 1175.74 179.893 1175.74 175.32C1175.74 168.787 1178.03 163.56 1182.6 159.64C1187.27 155.72 1194.13 153.76 1203.18 153.76H1222.78V151.94C1222.78 147.833 1221.61 144.94 1219.28 143.26C1217.04 141.58 1212.47 140.74 1205.56 140.74C1198 140.74 1190.72 141.907 1183.72 144.24V130.94C1186.8 129.727 1190.53 128.747 1194.92 128C1199.4 127.16 1204.25 126.74 1209.48 126.74C1219.47 126.74 1227.17 128.793 1232.58 132.9C1238.09 136.913 1240.84 143.4 1240.84 152.36V194.5H1224.46L1223.48 188.48C1220.87 190.813 1217.65 192.633 1213.82 193.94C1209.99 195.247 1205.19 195.9 1199.4 195.9ZM1204.58 183.44C1208.78 183.44 1212.42 182.74 1215.5 181.34C1218.58 179.94 1221.01 178.167 1222.78 176.02V165.52H1203.6C1196.23 165.52 1192.54 168.553 1192.54 174.62C1192.54 180.5 1196.55 183.44 1204.58 183.44ZM1298.02 194.5L1332.46 104.34H1353.18L1387.48 194.5H1367.88L1359.34 172.8H1326.16L1317.76 194.5H1298.02ZM1328.96 158.24H1356.54L1342.68 121.98L1328.96 158.24ZM1429.06 195.9C1423.18 195.9 1417.9 194.873 1413.24 192.82C1408.66 190.673 1405.07 187.22 1402.46 182.46C1399.84 177.607 1398.54 171.213 1398.54 163.28C1398.54 155.347 1399.98 148.673 1402.88 143.26C1405.77 137.847 1409.64 133.74 1414.5 130.94C1419.35 128.14 1424.67 126.74 1430.46 126.74C1437.74 126.74 1443.94 128.42 1449.08 131.78V100.14H1467.98V194.5H1451.74L1450.62 188.34C1447.72 190.86 1444.55 192.773 1441.1 194.08C1437.74 195.293 1433.72 195.9 1429.06 195.9ZM1434.24 182.04C1440.12 182.04 1445.06 180.033 1449.08 176.02V145.78C1445.16 142.327 1440.58 140.6 1435.36 140.6C1423.6 140.6 1417.72 148.16 1417.72 163.28C1417.72 170.373 1419.16 175.273 1422.06 177.98C1424.95 180.687 1429.01 182.04 1434.24 182.04ZM1524.13 195.9C1512.65 195.9 1503.55 193.053 1496.83 187.36C1490.11 181.573 1486.75 172.847 1486.75 161.18C1486.75 150.633 1489.55 142.28 1495.15 136.12C1500.84 129.867 1509.29 126.74 1520.49 126.74C1530.75 126.74 1538.59 129.447 1544.01 134.86C1549.51 140.18 1552.27 147.18 1552.27 155.86V167.9H1504.25C1505.27 173.22 1507.7 176.86 1511.53 178.82C1515.45 180.78 1520.95 181.76 1528.05 181.76C1531.59 181.76 1535.19 181.433 1538.83 180.78C1542.56 180.127 1545.73 179.287 1548.35 178.26V191.7C1545.27 193.1 1541.67 194.127 1537.57 194.78C1533.46 195.527 1528.98 195.9 1524.13 195.9ZM1504.25 156.28H1535.75V152.64C1535.75 148.813 1534.63 145.827 1532.39 143.68C1530.15 141.44 1526.37 140.32 1521.05 140.32C1514.79 140.32 1510.41 141.58 1507.89 144.1C1505.46 146.62 1504.25 150.68 1504.25 156.28ZM1590.91 195.9C1584.47 195.9 1579.75 194.407 1576.77 191.42C1573.87 188.433 1572.43 183.673 1572.43 177.14V100.14H1591.33V175.6C1591.33 177.933 1591.79 179.567 1592.73 180.5C1593.66 181.34 1595.01 181.76 1596.79 181.76C1599.21 181.76 1601.41 181.433 1603.37 180.78V193.8C1599.82 195.2 1595.67 195.9 1590.91 195.9Z" fill="black"/>
<defs>
<filter id="filter0_d_366_330" x="26.8318" y="7.00781" width="473.168" height="379.961" filterUnits="userSpaceOnUse" color-interpolation-filters="sRGB">
<feFlood flood-opacity="0" result="BackgroundImageFix"/>
<feColorMatrix in="SourceAlpha" type="matrix" values="0 0 0 0 0 0 0 0 0 0 0 0 0 0 0 0 0 0 127 0" result="hardAlpha"/>
<feOffset dx="-4" dy="4"/>
<feGaussianBlur stdDeviation="2"/>
<feComposite in2="hardAlpha" operator="out"/>
<feColorMatrix type="matrix" values="0 0 0 0 0 0 0 0 0 0 0 0 0 0 0 0 0 0 0.1 0"/>
<feBlend mode="normal" in2="BackgroundImageFix" result="effect1_dropShadow_366_330"/>
<feBlend mode="normal" in="SourceGraphic" in2="effect1_dropShadow_366_330" result="shape"/>
</filter>
<filter id="filter1_dd_366_330" x="144.245" y="89.9746" width="98.1355" height="127.676" filterUnits="userSpaceOnUse" color-interpolation-filters="sRGB">
<feFlood flood-opacity="0" result="BackgroundImageFix"/>
<feColorMatrix in="SourceAlpha" type="matrix" values="0 0 0 0 0 0 0 0 0 0 0 0 0 0 0 0 0 0 127 0" result="hardAlpha"/>
<feOffset dy="4"/>
<feGaussianBlur stdDeviation="2"/>
<feComposite in2="hardAlpha" operator="out"/>
<feColorMatrix type="matrix" values="0 0 0 0 0 0 0 0 0 0 0 0 0 0 0 0 0 0 0.1 0"/>
<feBlend mode="normal" in2="BackgroundImageFix" result="effect1_dropShadow_366_330"/>
<feColorMatrix in="SourceAlpha" type="matrix" values="0 0 0 0 0 0 0 0 0 0 0 0 0 0 0 0 0 0 127 0" result="hardAlpha"/>
<feOffset dy="-4"/>
<feGaussianBlur stdDeviation="2"/>
<feComposite in2="hardAlpha" operator="out"/>
<feColorMatrix type="matrix" values="0 0 0 0 0 0 0 0 0 0 0 0 0 0 0 0 0 0 0.1 0"/>
<feBlend mode="normal" in2="effect1_dropShadow_366_330" result="effect2_dropShadow_366_330"/>
<feBlend mode="normal" in="SourceGraphic" in2="effect2_dropShadow_366_330" result="shape"/>
</filter>
<clipPath id="clip0_366_330">
<rect width="85.2272" height="66.8451" fill="white" transform="matrix(0 1 -1 0 434.951 250.568)"/>
</clipPath>
</defs>
</svg>
